<svg width="400" height="400" viewBox="0 0 400 400" fill="none" xmlns="http://www.w3.org/2000/svg">
<circle cx="200" cy="200" r="200" fill="black"/>
<path d="M124.49 282.16L139.85 278.32V165.68L124.49 161.84V158H157.77C173.13 158 180.81 165.68 180.81 181.04V278.32L196.17 282.16V286H124.49V282.16ZM157.77 142.64C152.65 142.64 148.383 140.933 144.97 137.52C141.557 134.107 139.85 129.84 139.85 124.72C139.85 119.6 141.557 115.333 144.97 111.92C148.383 108.507 152.65 106.8 157.77 106.8C162.89 106.8 167.157 108.507 170.57 111.92C173.983 115.333 175.69 119.6 175.69 124.72C175.69 129.84 173.983 134.107 170.57 137.52C167.157 140.933 162.89 142.64 157.77 142.64ZM210.21 341.04C197.41 341.04 188.023 338.907 182.05 334.64C176.077 330.373 173.09 324.4 173.09 316.72C173.09 310.917 174.882 306.224 178.466 302.64C181.879 299.227 186.487 297.52 192.29 297.52C193.655 297.52 195.021 297.605 196.386 297.776C197.751 298.117 198.69 298.288 199.202 298.288L202.53 298.8V334.64L204.066 335.408C205.773 335.749 206.967 335.92 207.65 335.92C212.941 335.92 217.207 332.677 220.45 326.192C223.863 319.877 225.57 309.04 225.57 293.68V165.68L210.21 161.84V158H243.49C258.85 158 266.53 165.68 266.53 181.04V293.68C266.53 302.725 264.311 310.832 259.874 318C255.437 325.168 248.951 330.8 240.418 334.896C231.885 338.992 221.815 341.04 210.21 341.04ZM243.49 142.64C238.37 142.64 234.103 140.933 230.69 137.52C227.277 134.107 225.57 129.84 225.57 124.72C225.57 119.6 227.277 115.333 230.69 111.92C234.103 108.507 238.37 106.8 243.49 106.8C248.61 106.8 252.877 108.507 256.29 111.92C259.703 115.333 261.41 119.6 261.41 124.72C261.41 129.84 259.703 134.107 256.29 137.52C252.877 140.933 248.61 142.64 243.49 142.64Z" fill="white"/>
</svg>
